<?xml version="1.0" encoding="UTF-8" standalone="no"?>
<!-- Created with Inkscape (http://www.inkscape.org/) -->

<svg
   xmlns:dc="http://purl.org/dc/elements/1.1/"
   xmlns:cc="http://creativecommons.org/ns#"
   xmlns:rdf="http://www.w3.org/1999/02/22-rdf-syntax-ns#"
   xmlns:svg="http://www.w3.org/2000/svg"
   xmlns="http://www.w3.org/2000/svg"
   xmlns:sodipodi="http://sodipodi.sourceforge.net/DTD/sodipodi-0.dtd"
   xmlns:inkscape="http://www.inkscape.org/namespaces/inkscape"
   width="210mm"
   height="297mm"
   viewBox="0 0 744.09448819 1052.3622047"
   id="svg2"
   version="1.1"
   inkscape:version="0.91 r13725"
   sodipodi:docname="spirals.svg">
  <sodipodi:namedview
     id="base"
     pagecolor="#ffffff"
     bordercolor="#666666"
     borderopacity="1.0"
     inkscape:pageopacity="0.0"
     inkscape:pageshadow="2"
     inkscape:zoom="0.7"
     inkscape:cx="260.51962"
     inkscape:cy="680.922"
     inkscape:document-units="px"
     inkscape:current-layer="layer1"
     showgrid="false"
     inkscape:window-width="1440"
     inkscape:window-height="805"
     inkscape:window-x="0"
     inkscape:window-y="1"
     inkscape:window-maximized="1" />
  <defs
     id="defs4" />
  <metadata
     id="metadata7">
    <rdf:RDF>
      <cc:Work
         rdf:about="">
        <dc:format>image/svg+xml</dc:format>
        <dc:type
           rdf:resource="http://purl.org/dc/dcmitype/StillImage" />
        <dc:title></dc:title>
      </cc:Work>
    </rdf:RDF>
  </metadata>
  <g
     inkscape:label="Layer 1"
     inkscape:groupmode="layer"
     id="layer1">
    <g
       info="N: 4"
       style="fill:#ffff00;stroke:none;stroke-width:0"
       transform="matrix(1.8534872,0,0,1.8534872,371.17903,385.5609)"
       inkscape:label="koch"
       id="g4334">
      <path
         inkscape:connector-curvature="0"
         d="m -200,0 37.75,-30.16 5.86,15.93 16.78,-13.4 -14.25,-9.24 37.76,-30.16 0,0 32.02,-4.86 -1.94,11.22 14.24,-2.16 -5.18,-10.14 32.03,-4.86 0,0 20.22,7.92 -4.89,5.86 8.99,3.52 0.39,-7.62 20.22,7.91 0,0 9.09,11.37 -4.8,1.77 4.03,5.05 2.78,-4.29 9.09,11.37 0,0 1.46,9.65 -3.38,-0.59 0.65,4.29 3.06,-1.56 1.46,9.65 0,0 -2.38,6.09 -1.77,-1.47 -1.06,2.7 2.3,0.12 -2.39,6.09 0,0 -3.42,2.74 -0.53,-1.45 -1.53,1.22 1.3,0.83 -3.43,2.74 M -200,0 l 37.75,30.16 -14.25,9.24 16.78,13.4 5.86,-15.93 37.76,30.16 0,0 32.02,4.86 -5.17,10.14 14.23,2.15 -1.94,-11.21 32.03,4.86 0,0 20.22,-7.92 0.39,7.62 8.98,-3.52 -4.88,-5.86 20.22,-7.91 0,0 9.09,-11.37 2.78,4.29 4.03,-5.05 -4.8,-1.77 9.09,-11.37 0,0 1.46,-9.65 3.06,1.56 0.65,-4.28 -3.38,0.58 1.46,-9.65 0,0 L 21.06,7.44 23.35,7.33 22.29,4.62 20.53,6.09 18.14,0 l 0,0 -3.42,-2.74 1.29,-0.83 -1.52,-1.22 -0.53,1.45 -3.43,-2.74 M -100,-173.21 l 45,17.62 -10.87,13.04 20,7.83 0.87,-16.96 45,17.62 0,0 20.22,25.3 -10.68,3.93 8.98,11.25 6.19,-9.55 20.22,25.3 0,0 3.26,21.47 -7.52,-1.3 1.45,9.54 6.79,-3.47 3.26,21.47 0,0 -5.31,13.55 -3.93,-3.27 -2.35,6.02 5.1,0.27 -5.3,13.55 0,0 -7.62,6.09 -1.19,-3.22 -3.38,2.71 2.87,1.86 -7.62,6.09 0,0 -6.47,0.98 0.4,-2.26 -2.88,0.44 1.05,2.04 -6.47,0.98 0,0 L 4.99,14.11 5.98,12.93 4.16,12.22 4.08,13.76 0,12.16 m -100,-185.37 -7.25,47.78 -15.12,-7.72 -3.22,21.23 16.73,-2.89 -7.24,47.78 0,0 11.8,30.16 -11.36,0.59 5.24,13.4 8.75,-7.28 11.8,30.16 0,0 16.97,13.55 -6.4,4.15 7.53,6.03 2.64,-7.16 16.96,13.55 0,0 14.39,2.18 -2.32,4.56 6.39,0.97 -0.87,-5.04 14.39,2.18 0,0 9.09,-3.56 0.17,3.43 4.04,-1.58 -2.2,-2.64 9.09,-3.55 0,0 4.08,-5.11 1.25,1.93 1.82,-2.27 -2.16,-0.8 4.08,-5.11 0,0 0.66,-4.33 1.37,0.7 0.29,-1.93 -1.51,0.27 0.65,-4.34 m 89.47,-179.29 7.25,47.78 -16.73,-2.89 3.22,21.23 15.12,-7.72 7.24,47.78 0,0 -11.8,30.16 -8.75,-7.28 -5.24,13.4 11.36,0.59 -11.8,30.16 0,0 -16.97,13.55 -2.63,-7.16 -7.54,6.03 6.4,4.15 -16.96,13.55 0,0 -14.39,2.18 0.87,-5.04 -6.4,0.97 2.33,4.56 -14.39,2.18 0,0 L 11.1,31.41 13.3,28.78 9.26,27.2 9.09,30.62 0,27.07 l 0,0 -4.08,-5.11 2.15,-0.8 -1.81,-2.27 -1.25,1.93 -4.08,-5.11 0,0 -0.66,-4.33 1.52,0.26 -0.29,-1.93 -1.38,0.71 -0.65,-4.34 M 100,-173.21 l -45,17.62 -0.87,-16.96 -20,7.83 10.87,13.04 -45,17.62 0,0 -20.22,25.3 -6.19,-9.55 -8.99,11.25 10.69,3.93 -20.22,25.3 0,0 -3.26,21.47 -6.79,-3.47 -1.45,9.54 7.52,-1.3 -3.26,21.47 0,0 5.31,13.55 -5.11,0.27 2.36,6.02 3.93,-3.27 5.3,13.55 0,0 7.62,6.09 -2.87,1.86 3.38,2.71 1.19,-3.22 7.62,6.09 0,0 6.47,0.98 -1.05,2.05 2.87,0.44 -0.39,-2.27 6.47,0.98 0,0 4.08,-1.6 0.08,1.54 L -3.1,14.94 -4.08,13.76 0,12.16 M 200,0 l -37.75,30.16 -5.86,-15.93 -16.78,13.4 14.25,9.24 -37.76,30.16 0,0 -32.02,4.86 1.94,-11.22 -14.24,2.16 5.18,10.14 -32.03,4.86 0,0 L 24.71,69.91 29.6,64.05 20.61,60.53 20.22,68.15 0,60.24 l 0,0 -9.09,-11.37 4.8,-1.77 -4.03,-5.05 -2.78,4.29 -9.09,-11.37 0,0 -1.46,-9.65 3.38,0.59 -0.65,-4.29 -3.06,1.56 -1.46,-9.65 0,0 2.38,-6.09 1.77,1.47 1.06,-2.7 -2.3,-0.12 2.39,-6.09 0,0 3.42,-2.74 0.53,1.45 1.53,-1.22 -1.3,-0.83 3.43,-2.74 M 200,0 l -37.75,-30.16 14.25,-9.24 -16.78,-13.4 -5.86,15.93 -37.76,-30.16 0,0 -32.02,-4.86 5.17,-10.14 -14.23,-2.15 1.94,11.21 -32.03,-4.86 0,0 -20.22,7.92 -0.39,-7.62 -8.98,3.52 4.88,5.86 -20.22,7.91 0,0 -9.09,11.37 -2.78,-4.29 -4.03,5.05 4.8,1.77 -9.09,11.37 0,0 -1.46,9.65 -3.06,-1.56 -0.65,4.28 3.38,-0.58 -1.46,9.65 0,0 2.38,6.09 -2.29,0.11 1.06,2.71 1.76,-1.47 2.39,6.09 0,0 3.42,2.74 -1.29,0.83 1.52,1.22 0.53,-1.45 3.43,2.74 M 100,173.21 55,155.59 65.87,142.55 45.87,134.72 45,151.68 0,134.06 l 0,0 -20.22,-25.3 10.68,-3.93 -8.98,-11.25 -6.19,9.55 -20.22,-25.3 0,0 -3.26,-21.47 7.52,1.3 -1.45,-9.54 -6.79,3.47 -3.26,-21.47 0,0 5.31,-13.55 3.93,3.27 2.35,-6.02 -5.1,-0.27 5.3,-13.55 0,0 7.62,-6.09 1.19,3.22 3.38,-2.71 -2.87,-1.86 7.62,-6.09 0,0 6.47,-0.98 -0.4,2.26 2.88,-0.44 -1.05,-2.04 6.47,-0.98 0,0 4.08,1.6 -0.99,1.18 1.82,0.71 0.08,-1.54 4.08,1.6 m 100,185.37 7.25,-47.78 15.12,7.72 3.22,-21.23 -16.73,2.89 7.24,-47.78 0,0 -11.8,-30.16 11.36,-0.59 -5.24,-13.4 -8.75,7.28 L 89.87,0 l 0,0 -16.97,-13.55 6.4,-4.15 -7.53,-6.03 -2.64,7.16 -16.96,-13.55 0,0 -14.39,-2.18 2.32,-4.56 -6.39,-0.97 0.87,5.04 -14.39,-2.18 0,0 -9.09,3.56 -0.17,-3.43 -4.04,1.58 2.2,2.64 -9.09,3.55 0,0 -4.08,5.11 -1.25,-1.93 -1.82,2.27 2.16,0.8 -4.08,5.11 0,0 -0.66,4.33 -1.37,-0.7 -0.29,1.93 1.51,-0.27 -0.65,4.34 m -89.47,179.29 -7.25,-47.78 16.73,2.89 -3.22,-21.23 -15.12,7.72 -7.24,-47.78 0,0 11.8,-30.16 8.75,7.28 5.24,-13.4 -11.36,-0.59 11.8,-30.16 0,0 16.97,-13.55 2.63,7.16 7.54,-6.03 -6.4,-4.15 16.96,-13.55 0,0 14.39,-2.18 -0.87,5.04 6.4,-0.97 -2.33,-4.56 14.39,-2.18 0,0 9.09,3.56 -2.2,2.63 4.04,1.58 0.17,-3.42 9.09,3.55 0,0 4.08,5.11 -2.15,0.8 1.81,2.27 1.25,-1.93 4.08,5.11 0,0 0.66,4.33 -1.52,-0.26 0.29,1.93 1.38,-0.71 0.65,4.34 M -100,173.21 l 45,-17.62 0.87,16.96 20,-7.83 -10.87,-13.04 45,-17.62 0,0 20.22,-25.3 6.19,9.55 8.99,-11.25 -10.69,-3.93 20.22,-25.3 0,0 3.26,-21.47 6.79,3.47 1.45,-9.54 -7.52,1.3 3.26,-21.47 0,0 -5.31,-13.55 5.11,-0.27 -2.36,-6.02 -3.93,3.27 -5.3,-13.55 0,0 -7.62,-6.09 2.87,-1.86 -3.38,-2.71 -1.19,3.22 -7.62,-6.09 0,0 -6.47,-0.98 1.05,-2.05 -2.87,-0.44 0.39,2.27 -6.47,-0.98 0,0 -4.08,1.6 -0.08,-1.54 -1.81,0.71 0.98,1.18 -4.08,1.6"
         style="fill:none;stroke:#dd0000;stroke-width:1"
         id="path4336" />
    </g>
  </g>
</svg>
